<svg width="20" height="22" viewBox="0 0 20 22" fill="none" xmlns="http://www.w3.org/2000/svg">
<path d="M19.3139 16.0598C18.9576 14.8258 18.0811 13.8083 16.9133 13.2734V5.14762C16.9134 5.0176 16.8447 4.89723 16.7328 4.83104L8.64382 0.0511881C8.52837 -0.0170627 8.38493 -0.0170627 8.26952 0.0511881L0.180532 4.83104C0.17281 4.83546 0.167295 4.84207 0.159941 4.84722C0.152588 4.85237 0.145602 4.85825 0.138248 4.86414C0.106306 4.88928 0.0788676 4.91961 0.0569906 4.95385C0.0569906 4.95642 0.0525784 4.95789 0.0511077 4.96047V4.96304C0.0303797 5.00041 0.0163159 5.04108 0.00955974 5.08327C0.00955974 5.0943 0.00625058 5.1046 0.00514754 5.11563C0.00404449 5.12666 2.30579e-08 5.13659 2.30579e-08 5.14762V14.7073C-4.59371e-05 14.8374 0.0686185 14.9577 0.180532 15.0239L8.26952 19.8038C8.27922 19.8085 8.28914 19.8126 8.2993 19.8163C8.30932 19.8213 8.31966 19.8257 8.33019 19.8295C8.41112 19.8633 8.50222 19.8633 8.58315 19.8295C8.59381 19.8257 8.60425 19.8213 8.6144 19.8163C8.62396 19.8118 8.63426 19.8093 8.64382 19.8038L10.8392 18.5062C11.5148 20.8464 13.9595 22.1959 16.2998 21.5203C18.64 20.8448 19.9895 18.4 19.3139 16.0598ZM8.45667 0.79464L10.3686 1.92452L7.53379 3.59968C7.35886 3.70304 7.30082 3.92866 7.40418 4.10359C7.50755 4.27851 7.73316 4.33656 7.90809 4.23319L11.0918 2.35324L13.0038 3.48313L5.63766 7.83463L3.72571 6.70475L6.80578 4.88473C6.9807 4.78136 7.03875 4.55574 6.93539 4.38082C6.83202 4.20589 6.60641 4.14785 6.43148 4.25121L3.00285 6.2775L1.09054 5.14762L8.45667 0.79464ZM5.26998 8.47182V10.9268L3.37053 9.8043V7.34929L5.26998 8.47182ZM10.808 16.1445C10.7102 16.5154 10.6614 16.8975 10.6628 17.2811C10.6628 17.435 10.6709 17.5888 10.687 17.7418L8.82435 18.843V17.6488C8.82435 17.4457 8.65972 17.2811 8.45667 17.2811C8.25362 17.2811 8.08899 17.4457 8.08899 17.6488V18.843L0.735363 14.4978V5.79216L2.63517 6.91469V10.0139C2.63503 10.144 2.70365 10.2646 2.8157 10.3308L5.45051 11.888C5.50722 11.9213 5.57184 11.939 5.63766 11.9391C5.84071 11.9391 6.00534 11.7744 6.00534 11.5714V8.90606L8.08899 10.1374V16.1781C8.08899 16.3811 8.25362 16.5457 8.45667 16.5457C8.65972 16.5457 8.82435 16.3811 8.82435 16.1781V10.1374L15.4882 6.19955C15.663 6.09619 15.721 5.87066 15.6176 5.69583C15.5143 5.521 15.2887 5.46304 15.1139 5.56641L8.45667 9.5006L6.36089 8.26188L13.727 3.9089L16.178 5.3572V13.016C13.8312 12.3971 11.427 13.7977 10.808 16.1445ZM15.0749 20.9579C13.0443 20.9579 11.3981 19.3118 11.3981 17.2811C11.3981 15.2504 13.0443 13.6043 15.0749 13.6043C17.1056 13.6043 18.7517 15.2504 18.7517 17.2811C18.7495 19.3108 17.1047 20.9557 15.0749 20.9579Z" fill="white"/>
</svg>
