<svg width="17" height="10" viewBox="0 0 17 10" fill="none" xmlns="http://www.w3.org/2000/svg">
<path d="M16.8737 4.14808L13.3654 0.639775C13.2869 0.560731 13.1934 0.498069 13.0905 0.455426C12.9875 0.412783 12.8771 0.391007 12.7657 0.391362H7.91304V0.956579H9.32609V5.19571H9.8913V0.956579H12.7657C12.8029 0.95655 12.8397 0.963848 12.874 0.978057C12.9083 0.992265 12.9395 1.01311 12.9658 1.03938L13.4482 1.5218H12.1522C12.0023 1.5218 11.8585 1.58135 11.7525 1.68734C11.6465 1.79334 11.587 1.93711 11.587 2.08701V4.63049C11.587 4.7804 11.6465 4.92416 11.7525 5.03016C11.8585 5.13616 12.0023 5.19571 12.1522 5.19571H16.3913V7.45658C16.3913 7.53153 16.3615 7.60341 16.3085 7.65641C16.2555 7.70941 16.1836 7.73919 16.1087 7.73919H15.5209C15.4533 7.26868 15.2184 6.83831 14.8592 6.52701C14.4999 6.2157 14.0405 6.04433 13.5652 6.04433C13.0899 6.04433 12.6305 6.2157 12.2713 6.52701C11.9121 6.83831 11.6771 7.26868 11.6096 7.73919H7.60783C7.54025 7.26868 7.30532 6.83831 6.94611 6.52701C6.58691 6.2157 6.12751 6.04433 5.65217 6.04433C5.17684 6.04433 4.71744 6.2157 4.35823 6.52701C3.99903 6.83831 3.76409 7.26868 3.69652 7.73919H3.1087C3.03374 7.73919 2.96186 7.70941 2.90886 7.65641C2.85586 7.60341 2.82609 7.53153 2.82609 7.45658V4.9131H2.26087V7.45658C2.26087 7.68144 2.35019 7.89708 2.50919 8.05608C2.66819 8.21508 2.88384 8.30441 3.1087 8.30441H3.69652C3.75821 8.73412 3.95996 9.13148 4.2705 9.43484H0V10.0001H13.5652C14.0404 9.99915 14.4995 9.82736 14.8585 9.51605C15.2175 9.20474 15.4526 8.77469 15.5209 8.30441H16.1087C16.3336 8.30441 16.5492 8.21508 16.7082 8.05608C16.8672 7.89708 16.9565 7.68144 16.9565 7.45658V4.34788C16.9565 4.27294 16.9267 4.20107 16.8737 4.14808ZM4.23913 8.0218C4.23913 7.74232 4.322 7.46913 4.47727 7.23675C4.63254 7.00438 4.85323 6.82326 5.11143 6.71631C5.36963 6.60936 5.65374 6.58138 5.92785 6.6359C6.20195 6.69043 6.45373 6.82501 6.65135 7.02262C6.84896 7.22024 6.98354 7.47202 7.03807 7.74612C7.09259 8.02023 7.06461 8.30434 6.95766 8.56254C6.85071 8.82074 6.66959 9.04143 6.43722 9.1967C6.20484 9.35197 5.93165 9.43484 5.65217 9.43484C5.27755 9.43439 4.9184 9.28537 4.6535 9.02047C4.3886 8.75557 4.23958 8.39642 4.23913 8.0218ZM7.03385 9.43484C7.34438 9.13148 7.54614 8.73412 7.60783 8.30441H11.6096C11.6713 8.73412 11.873 9.13148 12.1835 9.43484H7.03385ZM13.5652 9.43484C13.2857 9.43484 13.0125 9.35197 12.7802 9.1967C12.5478 9.04143 12.3667 8.82074 12.2597 8.56254C12.1528 8.30434 12.1248 8.02023 12.1793 7.74612C12.2338 7.47202 12.3684 7.22024 12.566 7.02262C12.7637 6.82501 13.0154 6.69043 13.2895 6.6359C13.5636 6.58138 13.8478 6.60936 14.106 6.71631C14.3642 6.82326 14.5849 7.00438 14.7401 7.23675C14.8954 7.46913 14.9783 7.74232 14.9783 8.0218C14.9778 8.39642 14.8288 8.75557 14.5639 9.02047C14.299 9.28537 13.9398 9.43439 13.5652 9.43484ZM12.1522 4.63049V2.08701H14.0134L16.3913 4.46488V4.63049H12.1522Z" fill="white"/>
</svg>
