<svg width="14" height="23" viewBox="0 0 14 23" fill="none" xmlns="http://www.w3.org/2000/svg">
<path d="M13.2441 17.4755C13.2441 16.8684 12.8727 16.3465 12.3454 16.1248C12.4522 15.9216 12.5128 15.6904 12.5128 15.4453C12.5128 14.6379 11.8559 13.9811 11.0484 13.9811H9.10098V11.4937C11.6148 10.8423 13.4766 8.55446 13.4766 5.83983C13.4766 2.61975 10.8569 0 7.63675 0C6.83211 0 6.05209 0.16109 5.31834 0.478821C5.09067 0.57738 4.98605 0.841879 5.08461 1.06954C5.18317 1.29721 5.4478 1.40192 5.67533 1.30327C6.2957 1.03464 6.95565 0.898436 7.63675 0.898436C10.3614 0.898436 12.5781 3.11515 12.5781 5.83983C12.5781 8.56452 10.3614 10.7812 7.63675 10.7812C4.91206 10.7812 2.69531 8.56452 2.69531 5.83983C2.69531 5.1585 2.83156 4.49856 3.10028 3.87819C3.19888 3.65052 3.0943 3.38602 2.86664 3.28742C2.63911 3.18882 2.37448 3.2934 2.27592 3.5211C1.95805 4.25481 1.79687 5.03497 1.79687 5.83983C1.79687 8.55446 3.6587 10.8423 6.17243 11.4937V13.5238H6.09795C4.7826 13.5238 3.53337 14.0701 2.63812 15.0297H0.449218C0.330041 15.0297 0.21576 15.0771 0.131486 15.1614C0.0472579 15.2456 -8.9716e-05 15.36 1.27627e-07 15.4792L0.00314464 21.0451C0.0032794 21.2931 0.204349 21.494 0.452363 21.494H2.64046C3.53809 22.4537 4.78646 23 6.09795 23L10.7024 23C11.5099 23 12.1668 22.3431 12.1668 21.5357C12.1668 21.285 12.1035 21.0489 11.992 20.8423C12.5023 20.6133 12.8586 20.1003 12.8586 19.5056C12.8586 19.2013 12.7653 18.9184 12.6059 18.6839C12.9909 18.4199 13.2441 17.9767 13.2441 17.4755ZM7.63675 11.6797C7.82762 11.6797 8.01634 11.6701 8.20258 11.6522V13.9811H7.07091V13.973V11.6522C7.25711 11.6702 7.44583 11.6797 7.63675 11.6797ZM11.7798 18.0414H11.3945C11.1464 18.0414 10.9452 18.2425 10.9452 18.4906C10.9452 18.7387 11.1464 18.9398 11.3945 18.9398C11.7064 18.9398 11.9602 19.1936 11.9602 19.5056C11.9602 19.8176 11.7064 20.0715 11.3945 20.0715H10.7024C10.4544 20.0715 10.2532 20.2726 10.2532 20.5207C10.2532 20.7687 10.4543 20.9699 10.7024 20.9699C11.0145 20.9699 11.2683 21.2237 11.2683 21.5358C11.2683 21.8478 11.0145 22.1017 10.7024 22.1017L6.09795 22.1015C4.97931 22.1015 3.9166 21.6098 3.18235 20.7526C3.09704 20.653 2.97238 20.5956 2.84117 20.5956H0.901356L0.898705 15.9281H2.83915C2.97063 15.9281 3.09547 15.8706 3.18082 15.7706C3.91219 14.9137 4.97545 14.4222 6.09791 14.4222H6.17239V14.4302C6.17239 14.6783 6.37355 14.8794 6.62161 14.8794H11.0484C11.3604 14.8794 11.6143 15.1333 11.6143 15.4453C11.6143 15.7573 11.3605 16.0112 11.0484 16.0112C10.8003 16.0112 10.5992 16.2123 10.5992 16.4604C10.5992 16.7085 10.8003 16.9096 11.0484 16.9096H11.7797C12.0917 16.9096 12.3456 17.1634 12.3456 17.4754C12.3456 17.7875 12.0918 18.0414 11.7798 18.0414Z" fill="white"/>
<path d="M6.16933 7.889C6.43208 8.1517 6.77713 8.28305 7.12222 8.28305C7.46731 8.28305 7.81235 8.1517 8.0751 7.889L10.2678 5.69627C10.7932 5.17086 10.7932 4.31591 10.2678 3.79051C9.74238 3.26514 8.88751 3.26514 8.36206 3.79051L7.12222 5.03035L6.91153 4.81967C6.38608 4.2943 5.53122 4.2943 5.00577 4.81967C4.75124 5.07419 4.61108 5.41259 4.61108 5.77255C4.61108 6.13251 4.75124 6.4709 5.00577 6.72543L6.16933 7.889ZM5.64105 5.455C5.72861 5.36744 5.84361 5.32369 5.95861 5.32369C6.07361 5.32369 6.18865 5.36749 6.27616 5.455L6.80453 5.98332C6.97999 6.15874 7.26435 6.15874 7.43986 5.98332L8.99735 4.42584C9.17245 4.25073 9.45735 4.25073 9.6325 4.42584C9.71735 4.51065 9.76407 4.62345 9.76407 4.74339C9.76407 4.86333 9.71735 4.97613 9.6325 5.06094L7.43977 7.25367C7.26466 7.42877 6.97977 7.42877 6.80462 7.25367L5.64105 6.0901C5.5562 6.00529 5.50948 5.89253 5.50948 5.77255C5.50948 5.65256 5.5562 5.53981 5.64105 5.455Z" fill="white"/>
<path d="M3.82496 2.47708C3.94001 2.47708 4.05505 2.4332 4.14279 2.34546C4.31821 2.17004 4.31821 1.8856 4.14279 1.71018C3.96732 1.53476 3.68296 1.53476 3.50745 1.71018L3.50723 1.7104C3.33181 1.88582 3.33194 2.17013 3.50736 2.34555C3.5951 2.43324 3.71005 2.47708 3.82496 2.47708Z" fill="white"/>
</svg>
