<svg width="23" height="22" viewBox="0 0 23 22" fill="none" xmlns="http://www.w3.org/2000/svg">
<path d="M21.1643 5.08286L11.449 0.160199L11.4449 0.15818C11.0123 -0.0571923 10.4983 -0.0523795 10.0698 0.171071L5.90288 2.38254C5.86902 2.3969 5.83649 2.4143 5.80533 2.43432L0.811985 5.08445C0.311112 5.3467 0 5.86055 0 6.4261V15.5739C0 16.1394 0.311112 16.6532 0.811985 16.9155L10.0656 21.8267L10.0698 21.8289C10.2884 21.9429 10.5292 22 10.7701 22C11.0015 22 11.233 21.9473 11.4449 21.8418L21.1643 16.9171C21.6806 16.6589 22.0013 16.1401 22.0013 15.5627V6.43731C22.0013 5.85982 21.6806 5.34103 21.1643 5.08286ZM10.6671 1.31295C10.7302 1.28055 10.8056 1.2799 10.8692 1.31114L19.9632 5.91895L16.4239 7.68099L7.53321 2.97619L10.6671 1.31295ZM10.1165 20.3948L1.41418 15.7761L1.41002 15.7739C1.3352 15.7349 1.28867 15.6583 1.28867 15.5739V7.00758L10.1165 11.6108V20.3948ZM10.7676 10.497L1.98837 5.91908L6.15761 3.70636L15.0043 8.38778L10.7676 10.497ZM20.7125 15.5626C20.7126 15.6488 20.6646 15.7263 20.5874 15.7647L11.4052 20.4172V11.6191L15.6329 9.51431V11.7211C15.6329 12.0769 15.9215 12.3655 16.2773 12.3655C16.6331 12.3655 16.9217 12.0769 16.9217 11.7211V8.87271L20.7125 6.98541V15.5626Z" fill="#FF8749"/>
</svg>
