<svg width="19" height="17" viewBox="0 0 19 17" fill="none" xmlns="http://www.w3.org/2000/svg">
<path d="M18.3667 3.48389H5.38333C5.20844 3.48389 5.06667 3.62566 5.06667 3.80055C5.06667 3.97544 5.20844 4.11722 5.38333 4.11722H7.29758C5.89224 5.01147 5.04859 6.56826 5.06667 8.23389C5.04859 9.89952 5.89224 11.4563 7.29758 12.3506H0.633333V4.11722H3.8C3.97489 4.11722 4.11667 3.97544 4.11667 3.80055C4.11667 3.62566 3.97489 3.48389 3.8 3.48389H0.633333C0.283553 3.48389 0 3.76744 0 4.11722V12.3506C0 12.7003 0.283553 12.9839 0.633333 12.9839H18.3667C18.7164 12.9839 19 12.7003 19 12.3506V4.11722C19 3.76744 18.7164 3.48389 18.3667 3.48389ZM5.7 8.23389C5.7 5.96402 7.40462 4.11722 9.5 4.11722C11.5954 4.11722 13.3 5.96402 13.3 8.23389C13.3 10.5038 11.5954 12.3506 9.5 12.3506C7.40462 12.3506 5.7 10.5038 5.7 8.23389ZM18.3667 12.3506H11.7024C13.1078 11.4563 13.9514 9.89952 13.9333 8.23389C13.9514 6.56826 13.1078 5.01147 11.7024 4.11722H18.3667V12.3506Z" fill="#FF8749"/>
<path d="M16.6997 0.0669642C16.5498 -0.00806079 16.3762 -0.0205871 16.2171 0.0321308L9.39607 2.31815C9.22992 2.37376 9.14032 2.55354 9.19594 2.71968C9.25155 2.88583 9.43132 2.97543 9.59747 2.91981L16.4166 0.633797L17.1164 2.72031C17.1523 2.82779 17.2429 2.90794 17.3539 2.93057C17.4649 2.9532 17.5796 2.91488 17.6547 2.83003C17.7298 2.74518 17.754 2.62671 17.7181 2.51923L17.0179 0.433981C16.9658 0.273685 16.851 0.141307 16.6997 0.0669642Z" fill="#FF8749"/>
<path d="M9.40242 13.5481L2.58332 15.8338L1.88349 13.7473C1.82796 13.5811 1.64826 13.4914 1.48212 13.547C1.31597 13.6025 1.2263 13.7822 1.28182 13.9483L1.98071 16.033C2.0325 16.193 2.14668 16.3253 2.29737 16.4C2.38504 16.4436 2.48161 16.4663 2.57952 16.4665C2.64759 16.4666 2.71525 16.4559 2.77997 16.4348L9.60097 14.1488C9.76712 14.0932 9.85672 13.9134 9.80111 13.7473C9.74549 13.5811 9.56572 13.4915 9.39957 13.5471L9.40242 13.5481Z" fill="#FF8749"/>
<path d="M10.4501 7.12546C10.4501 7.30035 10.5919 7.44212 10.7667 7.44212C10.9416 7.44212 11.0834 7.30035 11.0834 7.12546C11.0528 6.41562 10.5203 5.82859 9.81675 5.72927V5.70046C9.81675 5.52557 9.67497 5.38379 9.50008 5.38379C9.32519 5.38379 9.18341 5.52557 9.18341 5.70046V5.72927C8.47989 5.82859 7.94732 6.41562 7.91675 7.12546C7.94732 7.8353 8.47989 8.42232 9.18341 8.52164V10.085C8.83102 10.0051 8.57326 9.70273 8.55008 9.34212C8.55008 9.16723 8.4083 9.02546 8.23341 9.02546C8.05852 9.02546 7.91675 9.16723 7.91675 9.34212C7.94732 10.052 8.47989 10.639 9.18341 10.7383V10.7671C9.18341 10.942 9.32519 11.0838 9.50008 11.0838C9.67497 11.0838 9.81675 10.942 9.81675 10.7671V10.7383C10.5203 10.639 11.0528 10.052 11.0834 9.34212C11.0528 8.63228 10.5203 8.04525 9.81675 7.94594V6.38256C10.1691 6.4625 10.4269 6.76485 10.4501 7.12546ZM8.55008 7.12546C8.57326 6.76485 8.83102 6.4625 9.18341 6.38256V7.86836C8.83102 7.78841 8.57326 7.48607 8.55008 7.12546ZM10.4501 9.34212C10.4269 9.70273 10.1691 10.0051 9.81675 10.085V8.59922C10.1691 8.67917 10.4269 8.98151 10.4501 9.34212Z" fill="#FF8749"/>
<path d="M16.1499 11.7171H17.4166C17.5915 11.7171 17.7333 11.5754 17.7333 11.4005V10.1338C17.7333 9.95892 17.5915 9.81714 17.4166 9.81714C17.2417 9.81714 17.0999 9.95892 17.0999 10.1338V11.0838H16.1499C15.975 11.0838 15.8333 11.2256 15.8333 11.4005C15.8333 11.5754 15.975 11.7171 16.1499 11.7171Z" fill="#FF8749"/>
<path d="M1.58327 9.81714C1.40838 9.81714 1.2666 9.95892 1.2666 10.1338V11.4005C1.2666 11.5754 1.40838 11.7171 1.58327 11.7171H2.84994C3.02483 11.7171 3.1666 11.5754 3.1666 11.4005C3.1666 11.2256 3.02483 11.0838 2.84994 11.0838H1.89993V10.1338C1.89993 9.95892 1.75816 9.81714 1.58327 9.81714Z" fill="#FF8749"/>
<path d="M2.84994 4.75049H1.58327C1.40838 4.75049 1.2666 4.89226 1.2666 5.06715V6.33382C1.2666 6.50871 1.40838 6.65049 1.58327 6.65049C1.75816 6.65049 1.89993 6.50871 1.89993 6.33382V5.38382H2.84994C3.02483 5.38382 3.1666 5.24205 3.1666 5.06715C3.1666 4.89226 3.02483 4.75049 2.84994 4.75049Z" fill="#FF8749"/>
<path d="M16.1499 5.38382H17.0999V6.33382C17.0999 6.50871 17.2417 6.65049 17.4166 6.65049C17.5915 6.65049 17.7333 6.50871 17.7333 6.33382V5.06715C17.7333 4.89226 17.5915 4.75049 17.4166 4.75049H16.1499C15.975 4.75049 15.8333 4.89226 15.8333 5.06715C15.8333 5.24205 15.975 5.38382 16.1499 5.38382Z" fill="#FF8749"/>
</svg>
