<svg width="23" height="21" viewBox="0 0 23 21" fill="none" xmlns="http://www.w3.org/2000/svg">
<path d="M21.036 6.24684H17.2688C16.6187 6.24684 16.0898 6.77601 16.0898 7.4265V11.7625H14.6807C14.759 11.4778 14.788 11.142 14.769 10.7513V10.7512C14.7384 9.09991 14.4388 7.70818 13.8783 6.61469C13.4431 5.76571 12.9353 5.25671 12.4995 4.95243C13.011 4.42652 13.3067 3.67836 13.3067 2.81549C13.3067 1.263 12.0683 0 10.5461 0C9.02385 0 7.78541 1.263 7.78541 2.81549C7.78541 2.99525 7.93111 3.14091 8.11082 3.14091H8.33193C8.31158 3.2637 8.30074 3.38883 8.30074 3.51592C8.30074 4.61001 9.08251 5.52442 10.1161 5.72935C10.0078 6.13165 9.95393 6.60602 9.95415 7.1449L9.14252 7.84298L7.16768 8.0027L4.88965 7.24964C4.68086 7.18022 4.44422 7.10178 4.2389 7.24982C4.03658 7.39582 4.03658 7.65142 4.03658 7.73538V9.42906C4.03658 9.60882 4.18228 9.75447 4.362 9.75447H4.74941L4.15521 11.8078C4.10527 11.9804 4.20471 12.1609 4.37736 12.2108C4.55009 12.261 4.73045 12.1613 4.78044 11.9887L5.42702 9.75447H6.35215C5.20148 13.2634 5.85804 15.6056 6.86722 17.976H6.28225L3.84584 15.2518L4.36104 13.472C4.41103 13.2993 4.31158 13.1189 4.13894 13.0689C3.96629 13.019 3.78584 13.1184 3.73585 13.291L3.24309 14.9935C1.71902 14.9681 0.355744 16.0188 0.00833111 17.5306C-0.0318902 17.7058 0.0774059 17.8804 0.252479 17.9206L0.714439 18.0269C0.596422 19.2527 1.40367 20.4093 2.63478 20.6926C2.82174 20.7357 3.01031 20.757 3.19757 20.757C3.6594 20.757 4.11312 20.6275 4.51442 20.376C4.9854 20.0809 5.33633 19.647 5.52625 19.1342L5.89075 19.2181C5.99936 19.2432 6.10236 19.2559 6.20528 19.2005C6.30104 19.149 6.36469 19.0559 6.38855 18.9508C6.41146 18.8443 6.4289 18.7361 6.44101 18.6268H13.2469C13.4645 19.98 14.6158 21 15.9909 21C17.3659 21 18.5173 19.98 18.7349 18.6268H18.9832C18.9832 18.6268 19.0325 18.6274 19.0438 18.6274C19.1368 18.6274 19.2713 18.6171 19.3816 18.5048C19.4369 18.4486 19.5017 18.348 19.4967 18.1883C19.4876 17.8827 19.4417 17.5875 19.3634 17.3068C19.6226 15.7332 19.3732 14.7748 19.0035 14.0247C19.2372 13.8715 19.3922 13.6076 19.3922 13.3077V12.4133H21.0359C21.686 12.4133 22.2149 11.8841 22.2149 11.2336V7.42645C22.215 6.77601 21.6861 6.24684 21.036 6.24684ZM4.16883 19.8246C3.75225 20.0857 3.25936 20.1687 2.78087 20.0585H2.78083C1.90012 19.8558 1.31255 19.0482 1.35538 18.175L4.88518 18.9874C4.73913 19.3312 4.49203 19.6221 4.16883 19.8246ZM5.79712 18.5288L0.735179 17.3639C1.12581 16.2942 2.17703 15.5861 3.32609 15.647L5.8058 18.4196C5.80363 18.4562 5.80077 18.4926 5.79712 18.5288ZM10.7124 12.8581C10.618 13.1072 10.618 13.4144 10.618 13.8395V15.0675H9.42637V13.3828C9.42637 11.4781 10.4659 11.1387 10.9324 11.0827H14.1227C14.1099 11.515 14.0123 11.8222 13.8272 12.0173C13.6113 12.2446 13.2421 12.3553 12.6981 12.3558L11.5301 12.357C11.1135 12.3571 10.8385 12.5256 10.7124 12.8581ZM10.618 15.7183V16.4953C10.615 16.4953 10.612 16.4953 10.6088 16.4953H8.29739C8.32338 16.2543 8.39845 16.0678 8.52172 15.9388C8.70508 15.7469 8.96332 15.7183 9.10095 15.7183H10.618ZM14.1084 10.4319H11.1489C11.0301 10.0579 10.9241 9.64843 10.837 9.22756L11.7368 8.64355C12.2279 8.3246 12.4834 7.87392 12.4378 7.40701C12.3974 6.99313 12.116 6.62341 11.721 6.46518C11.3602 6.32069 10.972 6.36608 10.6288 6.58549C10.6571 6.27422 10.7098 5.99636 10.786 5.7605C10.9247 5.74618 11.0624 5.71906 11.1977 5.67928C11.4731 5.61532 11.7276 5.5134 11.9573 5.37825C12.5841 5.75269 13.9625 6.96723 14.1084 10.4319ZM8.46006 2.49012C8.61353 1.45035 9.4905 0.650874 10.5461 0.650874C11.7094 0.650874 12.6559 1.62196 12.6559 2.81554C12.6559 3.78631 12.1904 4.56874 11.4397 4.91308V3.20083C11.4397 2.90435 11.3263 2.54067 10.7859 2.49147C10.7761 2.49055 10.7663 2.49012 10.7564 2.49012H8.46006ZM8.95161 3.51596C8.95161 3.38753 8.96623 3.26209 8.995 3.14095H10.7404C10.7605 3.14312 10.7752 3.14546 10.7857 3.14759C10.7874 3.15965 10.7889 3.17701 10.7889 3.20083V5.10455C10.7113 5.11596 10.6333 5.12173 10.5553 5.12178C10.5546 5.12178 10.5539 5.12178 10.5532 5.12178C9.66995 5.12095 8.95161 4.40092 8.95161 3.51596ZM8.52974 8.54558L9.3005 8.48323C9.36918 8.47772 9.43431 8.45051 9.48659 8.40561L10.8776 7.20916L10.8779 7.20895C11.0124 7.09305 11.1559 7.03361 11.2957 7.03361C11.3579 7.03361 11.4194 7.04541 11.479 7.06928C11.651 7.13813 11.773 7.29555 11.7901 7.47023C11.8116 7.69008 11.6668 7.91293 11.3825 8.09759L9.8324 9.10369H8.52983V8.54558H8.52974ZM7.15449 8.65683L7.87891 8.59825V9.10377H7.03713C6.928 9.10377 6.90141 9.01309 6.89828 8.93703C6.8965 8.8939 6.90058 8.67765 7.15449 8.65683ZM6.3843 8.43216C6.28629 8.59287 6.24051 8.78087 6.24802 8.96367C6.24997 9.01101 6.256 9.05661 6.26442 9.10104C6.26442 9.10195 6.2639 9.10286 6.26407 9.10373H4.6875V7.86832L6.38556 8.42964C6.38504 8.43051 6.38478 8.43134 6.3843 8.43216ZM7.03895 9.75456H9.92868C9.99155 9.75456 10.0531 9.73634 10.1058 9.7021L10.2531 9.60647C10.324 9.91965 10.4047 10.2244 10.4926 10.5123C9.82893 10.7082 8.7755 11.3412 8.7755 13.3828V15.1001C8.54718 15.1462 8.27709 15.2527 8.05116 15.4891C7.813 15.7383 7.67698 16.076 7.64435 16.4953H6.98788C6.32638 14.5888 6.07481 12.5602 7.03895 9.75456ZM7.57532 17.9749C7.45505 17.6983 7.33911 17.4227 7.22995 17.1461H10.6088C11.0467 17.1461 11.2687 16.9468 11.2687 16.5536V15.3929V14.1649H13.8373C14.0171 14.1649 14.1627 14.0192 14.1627 13.8395C14.1627 13.6597 14.0171 13.5141 13.8373 13.5141H11.2711C11.2752 13.3292 11.2871 13.1781 11.321 13.0888C11.3374 13.0453 11.3517 13.0078 11.5304 13.0078L12.6987 13.0066C13.4305 13.0059 13.954 12.8289 14.2991 12.4654C14.3151 12.4486 14.3302 12.4309 14.3453 12.4133H16.4152H18.7415V13.3077C18.7415 13.4196 18.6472 13.5141 18.5357 13.5141H15.296C15.1163 13.5141 14.9706 13.6597 14.9706 13.8395C14.9706 14.0192 15.1163 14.1649 15.296 14.1649H18.3444C18.6016 14.6423 18.833 15.2363 18.8192 16.1749C18.1754 15.2806 17.1332 14.7056 15.9503 14.7056C15.0004 14.7056 14.109 15.0782 13.4403 15.7548C12.847 16.3552 12.4907 17.1344 12.4173 17.976L7.57532 17.9749ZM15.9909 20.3493C14.9736 20.3493 14.1156 19.6163 13.9081 18.6269H18.0737C17.8661 19.6162 17.0082 20.3493 15.9909 20.3493ZM18.4434 17.9761H13.5385H13.071C13.2307 16.5046 14.4611 15.3564 15.9503 15.3564C17.2579 15.3564 18.3559 16.2186 18.7195 17.4255C18.7207 17.4293 18.7219 17.4331 18.7232 17.4369C18.7746 17.6101 18.8109 17.7903 18.8306 17.9761H18.4434ZM21.5642 11.2337C21.5642 11.5253 21.3272 11.7625 21.036 11.7625H16.7406V10.082H21.5642V11.2337ZM21.5642 9.43118H16.7406V8.73909H21.5642V9.43118ZM21.5642 8.08826H16.7406V7.4265C16.7406 7.13488 16.9776 6.89768 17.2688 6.89768H21.036C21.3272 6.89768 21.5642 7.13492 21.5642 7.4265V8.08826Z" fill="#FF8749"/>
</svg>
