<svg width="13" height="13" viewBox="0 0 13 13" fill="none" xmlns="http://www.w3.org/2000/svg">
<path d="M12.5054 3.00351L6.7649 0.0946633L6.76251 0.0934698C6.50691 -0.0337954 6.20318 -0.0309515 5.94996 0.101087L3.48786 1.40787C3.46785 1.41635 3.44863 1.42663 3.43022 1.43846L0.479781 3.00445C0.183828 3.15942 0 3.46305 0 3.79724V9.20274C0 9.53692 0.183828 9.84054 0.479781 9.9955L5.94753 12.8976L5.94999 12.8989C6.07912 12.9663 6.22144 13 6.36378 13C6.50051 13 6.63729 12.9689 6.76251 12.9065L12.5054 9.99647C12.8105 9.84389 13 9.53735 13 9.19613V3.80387C13 3.46262 12.8105 3.15606 12.5054 3.00351ZM6.30289 0.775832C6.34019 0.756686 6.38473 0.756306 6.42236 0.774766L11.7957 3.49756L9.70447 4.53876L4.45118 1.75866L6.30289 0.775832ZM5.97756 12.0515L0.835605 9.32226L0.833143 9.32096C0.788938 9.29788 0.761439 9.25261 0.761439 9.20274V4.14085L5.97756 6.86095V12.0515ZM6.36231 6.20279L1.17488 3.49764L3.63838 2.19012L8.86567 4.95641L6.36231 6.20279ZM12.2385 9.19608C12.2385 9.24705 12.2102 9.2928 12.1646 9.3155L6.73903 12.0647V6.86585L9.23711 5.62209V6.92611C9.23711 7.13638 9.40758 7.30686 9.61784 7.30686C9.8281 7.30686 9.99857 7.13638 9.99857 6.92611V5.24296L12.2385 4.12774V9.19608Z" fill="black"/>
</svg>
