<svg width="14" height="15" viewBox="0 0 14 15" fill="none" xmlns="http://www.w3.org/2000/svg">
<path d="M13.988 14.1171L12.3681 5.23217C12.3029 4.87448 11.9863 4.61411 11.6166 4.61411H8.92242C9.42756 4.12498 9.74148 3.44547 9.74148 2.69501C9.74148 1.20896 8.51169 0 7.00003 0C5.48837 0 4.25852 1.20896 4.25852 2.69501C4.25852 3.44547 4.57245 4.12498 5.07759 4.61411H2.38342C2.01371 4.61411 1.69719 4.87448 1.63194 5.23217L0.0119725 14.1171C-0.027879 14.3359 0.0328398 14.5607 0.177944 14.7311C0.322997 14.9015 0.537422 15 0.76345 15H13.2366C13.4626 15 13.677 14.9015 13.8221 14.7311C13.9671 14.5607 14.0279 14.3359 13.988 14.1171ZM7.00003 1.50101C7.66977 1.50101 8.21461 2.03662 8.21461 2.69501C8.21461 3.35341 7.66977 3.88907 7.00003 3.88907C6.33029 3.88907 5.7854 3.35341 5.7854 2.69501C5.7854 2.03662 6.33029 1.50101 7.00003 1.50101ZM6.80052 11.6141C6.76077 11.6862 6.68401 11.731 6.60065 11.731H6.24051C6.15979 11.731 6.08507 11.689 6.04425 11.6205L5.15297 10.1247L4.58298 10.6967V11.3855C4.58298 11.5763 4.42561 11.731 4.2315 11.731C4.03738 11.731 3.88001 11.5763 3.88001 11.3855V8.65383C3.88001 8.463 4.03738 8.30829 4.2315 8.30829C4.42561 8.30829 4.58298 8.463 4.58298 8.65383V9.82817L5.93574 8.38059C5.9788 8.33451 6.03957 8.30829 6.10319 8.30829H6.41228C6.50359 8.30829 6.58599 8.36193 6.62167 8.44454C6.65729 8.52714 6.63923 8.62271 6.57581 8.6872L5.63749 9.64134L6.7913 11.3856C6.83675 11.4544 6.84032 11.542 6.80052 11.6141ZM10.2636 11.1583C10.2636 11.2263 10.2321 11.2908 10.1781 11.3332C10.0378 11.4432 9.853 11.542 9.62366 11.6294C9.34414 11.7361 9.06111 11.7893 8.77456 11.7893C8.41035 11.7893 8.09302 11.7143 7.82215 11.564C7.55148 11.4139 7.34795 11.1991 7.21181 10.9197C7.07561 10.6403 7.00756 10.3364 7.00756 10.0079C7.00756 9.65155 7.08355 9.33474 7.23557 9.05775C7.38755 8.78066 7.61001 8.56827 7.90297 8.42032C8.1261 8.30674 8.40404 8.24986 8.73654 8.24986C9.1688 8.24986 9.5064 8.33902 9.74947 8.51723C9.85478 8.59444 9.94379 8.68445 10.0165 8.78722C10.086 8.88543 10.1001 9.01157 10.054 9.12224C10.0079 9.23297 9.90791 9.31327 9.78826 9.33529L9.78744 9.33543C9.64727 9.3612 9.50517 9.30016 9.42929 9.18148C9.38073 9.10553 9.31879 9.04054 9.24362 8.98645C9.10819 8.88918 8.93916 8.84055 8.73654 8.84055C8.42934 8.84055 8.18509 8.93632 8.0039 9.1277C7.82261 9.31922 7.73196 9.60327 7.73196 9.97992C7.73196 10.3862 7.82373 10.6908 8.00746 10.894C8.19109 11.0971 8.43173 11.1986 8.72947 11.1986C8.87666 11.1986 9.02431 11.1703 9.17237 11.1134C9.32032 11.0566 9.44741 10.9877 9.55352 10.9068V10.4725H9.04177C8.87977 10.4725 8.7485 10.3434 8.7485 10.1842C8.7485 10.025 8.87982 9.89591 9.04177 9.89591H10.0362C10.1618 9.89591 10.2636 9.99603 10.2636 10.1195V11.1583Z" fill="black"/>
</svg>
